<svg width="60" height="60" viewBox="0 0 60 60" fill="none" xmlns="http://www.w3.org/2000/svg">
<circle cx="30" cy="30" r="30" fill="#E1E7E1"/>
<path d="M27.68 38.4C26.0267 39.04 24.5333 39.36 23.2 39.36C21.6533 39.36 20.4 38.9333 19.44 38.08C18.48 37.2267 18 35.8667 18 34C18 32.5067 18.5333 30.96 19.6 29.36C20.72 27.7067 22.3733 25.7067 24.56 23.36L27.68 20L30 21.52L26.32 28.72C25.68 30 25.36 31.0933 25.36 32C25.36 33.0667 25.9733 34.0533 27.2 34.96L28.64 35.92L29.04 37.84L27.68 38.4ZM40 38.4C38.3467 39.04 36.8533 39.36 35.52 39.36C33.9733 39.36 32.72 38.9333 31.76 38.08C30.8 37.2267 30.32 35.8667 30.32 34C30.32 32.5067 30.8533 30.96 31.92 29.36C33.04 27.7067 34.6933 25.7067 36.88 23.36L40 20L42.32 21.52L38.64 28.72C38 30 37.68 31.0933 37.68 32C37.68 33.0667 38.2933 34.0533 39.52 34.96L40.96 35.92L41.36 37.84L40 38.4Z" fill="#247C88"/>
</svg>
